<svg xmlns="http://www.w3.org/2000/svg" width="29" height="26" viewBox="0 0 29 26">
    <path fill="#FFF" fill-rule="nonzero" d="M13.86 12.721a.872.872 0 0 0 1.284 0l5.482-5.799c1.591-1.686 1.5-4.478-.282-6.032-1.55-1.356-3.861-1.112-5.28.39l-.565.595-.559-.59C12.52-.221 10.21-.465 8.66.89c-1.778 1.554-1.874 4.346-.283 6.032l5.483 5.8zm14.6 3.94c-.594-.543-1.52-.507-2.145 0l-4.652 3.753a3.188 3.188 0 0 1-2.014.711h-5.955a.811.811 0 0 1-.806-.812c0-.447.363-.813.806-.813h3.942c.8 0 1.545-.553 1.676-1.35a1.622 1.622 0 0 0-1.59-1.9H9.665c-1.36 0-2.673.473-3.73 1.336L3.595 19.5H.805a.811.811 0 0 0-.805.813v4.875c0 .446.362.812.806.812h17.962c.73 0 1.44-.249 2.014-.71l7.612-6.145a1.633 1.633 0 0 0 .066-2.483z"/>
</svg>
